<svg width="283" height="174" viewBox="0 0 283 174" fill="none" xmlns="http://www.w3.org/2000/svg">
<path d="M27.936 18.336C27.936 17.632 27.872 16.928 27.744 16.224C27.68 15.456 27.488 14.784 27.168 14.208C26.912 13.568 26.496 13.056 25.92 12.672C25.408 12.288 24.672 12.096 23.712 12.096C22.496 12.096 21.472 12.48 20.64 13.248C20.256 12.224 20.064 11.296 20.064 10.464C20.064 9.44 20.224 8.448 20.544 7.488C20.928 6.464 21.504 5.568 22.272 4.8C23.04 4.032 24 3.424 25.152 2.976C26.368 2.46399 27.84 2.20799 29.568 2.20799C33.408 2.20799 36.384 3.35999 38.496 5.664C40.608 7.968 41.664 11.136 41.664 15.168V72C39.936 72 38.24 71.872 36.576 71.616C34.976 71.36 33.504 70.848 32.16 70.08C30.88 69.248 29.856 68.032 29.088 66.432C28.32 64.832 27.936 62.688 27.936 60V18.336ZM18.624 72H17.664C16 72 14.4 71.84 12.864 71.52C11.328 71.2 9.952 70.624 8.736 69.792C7.584 68.96 6.624 67.808 5.856 66.336C5.152 64.864 4.8 62.944 4.8 60.576V2.304H6.336C7.872 2.304 9.376 2.496 10.848 2.88C12.32 3.2 13.632 3.808 14.784 4.704C15.936 5.536 16.864 6.688 17.568 8.16C18.272 9.632 18.624 11.52 18.624 13.824V72ZM65.028 55.776C65.028 56.48 65.06 57.216 65.124 57.984C65.252 58.688 65.444 59.36 65.7 60C66.02 60.576 66.436 61.056 66.948 61.44C67.524 61.824 68.292 62.016 69.252 62.016C70.404 62.016 71.428 61.632 72.324 60.864C72.516 61.376 72.644 61.856 72.708 62.304C72.836 62.688 72.9 63.136 72.9 63.648C72.9 64.672 72.708 65.696 72.324 66.72C72.004 67.68 71.46 68.544 70.692 69.312C69.924 70.08 68.932 70.72 67.716 71.232C66.564 71.68 65.124 71.904 63.396 71.904C59.556 71.904 56.58 70.752 54.468 68.448C52.356 66.144 51.3 62.976 51.3 58.944V2.112C53.028 2.112 54.692 2.24 56.292 2.496C57.956 2.752 59.428 3.296 60.708 4.128C62.052 4.896 63.108 6.08 63.876 7.68C64.644 9.28 65.028 11.424 65.028 14.112V55.776ZM74.436 2.304H75.972C77.508 2.304 79.012 2.496 80.484 2.88C81.956 3.2 83.268 3.808 84.42 4.704C85.572 5.536 86.5 6.688 87.204 8.16C87.908 9.632 88.26 11.52 88.26 13.824V45.792C88.26 48.864 87.908 51.424 87.204 53.472C86.5 55.52 85.54 57.152 84.324 58.368C83.108 59.52 81.7 60.352 80.1 60.864C78.5 61.376 76.804 61.632 75.012 61.632H74.436V2.304ZM120.561 18.336C120.561 17.632 120.497 16.928 120.369 16.224C120.305 15.456 120.113 14.784 119.793 14.208C119.537 13.568 119.121 13.056 118.545 12.672C118.033 12.288 117.297 12.096 116.337 12.096C115.121 12.096 114.097 12.48 113.265 13.248C112.881 12.224 112.689 11.296 112.689 10.464C112.689 9.44 112.849 8.448 113.169 7.488C113.553 6.464 114.129 5.568 114.897 4.8C115.665 4.032 116.625 3.424 117.777 2.976C118.993 2.46399 120.465 2.20799 122.193 2.20799C126.033 2.20799 129.009 3.35999 131.121 5.664C133.233 7.968 134.289 11.136 134.289 15.168V72C132.561 72 130.865 71.872 129.201 71.616C127.601 71.36 126.129 70.848 124.785 70.08C123.505 69.248 122.481 68.032 121.713 66.432C120.945 64.832 120.561 62.688 120.561 60V18.336ZM111.249 72H110.289C108.625 72 107.025 71.84 105.489 71.52C103.953 71.2 102.577 70.624 101.361 69.792C100.209 68.96 99.249 67.808 98.481 66.336C97.777 64.864 97.425 62.944 97.425 60.576V2.304H98.961C100.497 2.304 102.001 2.496 103.473 2.88C104.945 3.2 106.257 3.808 107.409 4.704C108.561 5.536 109.489 6.688 110.193 8.16C110.897 9.632 111.249 11.52 111.249 13.824V72ZM143.601 18.336C143.601 17.632 143.537 16.928 143.409 16.224C143.345 15.456 143.153 14.784 142.833 14.208C142.577 13.568 142.161 13.056 141.585 12.672C141.073 12.288 140.337 12.096 139.377 12.096C138.161 12.096 137.137 12.48 136.305 13.248C135.921 12.224 135.729 11.296 135.729 10.464C135.729 9.44 135.889 8.448 136.209 7.488C136.593 6.464 137.169 5.568 137.937 4.8C138.705 4.032 139.665 3.424 140.817 2.976C142.033 2.46399 143.505 2.20799 145.233 2.20799C149.073 2.20799 152.049 3.35999 154.161 5.664C156.273 7.968 157.329 11.136 157.329 15.168V72C155.601 72 153.905 71.872 152.241 71.616C150.641 71.36 149.169 70.848 147.825 70.08C146.545 69.248 145.521 68.032 144.753 66.432C143.985 64.832 143.601 62.688 143.601 60V18.336Z" fill="#025E73"/>
<path d="M48.7784 96C48.7405 95.5265 48.563 95.1572 48.2457 94.892C47.9332 94.6269 47.4574 94.4943 46.8182 94.4943C46.411 94.4943 46.0772 94.544 45.8168 94.6435C45.5611 94.7382 45.3717 94.8684 45.2486 95.0341C45.1255 95.1998 45.0616 95.3892 45.0568 95.6023C45.0473 95.7775 45.0781 95.9361 45.1491 96.0781C45.2249 96.2154 45.3433 96.3409 45.5043 96.4545C45.6652 96.5634 45.8712 96.6629 46.1222 96.7528C46.3731 96.8428 46.6714 96.9233 47.017 96.9943L48.2102 97.25C49.0152 97.4205 49.7041 97.6454 50.277 97.9247C50.8499 98.2041 51.3187 98.5331 51.6832 98.9119C52.0478 99.286 52.3153 99.7074 52.4858 100.176C52.661 100.645 52.7509 101.156 52.7557 101.71C52.7509 102.667 52.5118 103.476 52.0384 104.139C51.5649 104.802 50.8878 105.306 50.0071 105.652C49.1312 105.998 48.0777 106.17 46.8466 106.17C45.5824 106.17 44.4792 105.983 43.5369 105.609C42.5994 105.235 41.8703 104.66 41.3494 103.884C40.8333 103.102 40.5729 102.103 40.5682 100.886H44.3182C44.3419 101.331 44.4531 101.705 44.652 102.009C44.8509 102.312 45.1302 102.541 45.4901 102.697C45.8546 102.854 46.2879 102.932 46.7898 102.932C47.2112 102.932 47.5639 102.88 47.848 102.776C48.1321 102.671 48.3475 102.527 48.4943 102.342C48.6411 102.158 48.7169 101.947 48.7216 101.71C48.7169 101.488 48.6435 101.294 48.5014 101.128C48.3641 100.957 48.1368 100.806 47.8196 100.673C47.5024 100.536 47.0739 100.408 46.5341 100.29L45.0852 99.9773C43.7973 99.6979 42.7817 99.2315 42.0384 98.5781C41.2997 97.92 40.9328 97.0227 40.9375 95.8864C40.9328 94.9631 41.179 94.1558 41.6761 93.4645C42.178 92.7685 42.8717 92.2263 43.7571 91.8381C44.6473 91.4498 45.6676 91.2557 46.8182 91.2557C47.9924 91.2557 49.008 91.4522 49.8651 91.8452C50.7221 92.2382 51.3826 92.7921 51.8466 93.5071C52.3153 94.2173 52.5521 95.0483 52.5568 96H48.7784ZM59.5419 106.199C58.3771 106.199 57.3733 105.976 56.5305 105.531C55.6925 105.081 55.0462 104.437 54.5916 103.599C54.1418 102.757 53.9169 101.748 53.9169 100.574C53.9169 99.447 54.1442 98.4621 54.5987 97.6193C55.0533 96.7765 55.6948 96.1207 56.5234 95.652C57.352 95.1832 58.3298 94.9489 59.4567 94.9489C60.2805 94.9489 61.0263 95.0767 61.6939 95.3324C62.3615 95.5881 62.9321 95.9598 63.4055 96.4474C63.879 96.9304 64.2436 97.5175 64.4993 98.2088C64.755 98.9001 64.8828 99.679 64.8828 100.545V101.455H55.1385V99.2955H61.2749C61.2701 98.983 61.1896 98.7083 61.0334 98.4716C60.8819 98.2301 60.6759 98.0431 60.4155 97.9105C60.1598 97.7732 59.8686 97.7045 59.5419 97.7045C59.2247 97.7045 58.9335 97.7732 58.6683 97.9105C58.4032 98.0431 58.1901 98.2277 58.0291 98.4645C57.8729 98.7012 57.79 98.9782 57.7805 99.2955V101.625C57.7805 101.975 57.8539 102.288 58.0007 102.562C58.1475 102.837 58.3582 103.053 58.6328 103.209C58.9074 103.365 59.2389 103.443 59.6271 103.443C59.897 103.443 60.1432 103.405 60.3658 103.33C60.593 103.254 60.7872 103.145 60.9482 103.003C61.1091 102.856 61.2275 102.681 61.3033 102.477H64.8828C64.7597 103.235 64.4685 103.893 64.0092 104.452C63.55 105.006 62.9415 105.437 62.1839 105.744C61.4311 106.047 60.5504 106.199 59.5419 106.199ZM71.7383 106.199C70.5546 106.199 69.5413 105.964 68.6985 105.496C67.8557 105.022 67.2094 104.364 66.7596 103.521C66.3098 102.674 66.0849 101.691 66.0849 100.574C66.0849 99.4564 66.3098 98.4763 66.7596 97.6335C67.2094 96.786 67.8557 96.1278 68.6985 95.6591C69.5413 95.1856 70.5546 94.9489 71.7383 94.9489C72.8084 94.9489 73.734 95.143 74.5153 95.5312C75.3013 95.9148 75.9097 96.4593 76.3406 97.1648C76.7714 97.8655 76.9892 98.6894 76.994 99.6364H73.3576C73.3055 99.0634 73.1398 98.6278 72.8604 98.3295C72.5858 98.0265 72.2307 97.875 71.7951 97.875C71.4542 97.875 71.1559 97.9744 70.9002 98.1733C70.6445 98.3674 70.4457 98.6634 70.3036 99.0611C70.1616 99.4541 70.0906 99.9489 70.0906 100.545C70.0906 101.142 70.1616 101.639 70.3036 102.037C70.4457 102.43 70.6445 102.726 70.9002 102.925C71.1559 103.119 71.4542 103.216 71.7951 103.216C72.0839 103.216 72.3396 103.15 72.5621 103.017C72.7847 102.88 72.9646 102.681 73.1019 102.42C73.244 102.155 73.3292 101.833 73.3576 101.455H76.994C76.9798 102.416 76.7596 103.254 76.3335 103.969C75.9073 104.679 75.3036 105.228 74.5224 105.616C73.7459 106.005 72.8178 106.199 71.7383 106.199ZM85.6854 101.227V95.0909H89.6058V106H85.8842V103.926H85.7706C85.5339 104.622 85.1196 105.167 84.5277 105.56C83.9358 105.948 83.2327 106.142 82.4183 106.142C81.656 106.142 80.9884 105.967 80.4155 105.616C79.8473 105.266 79.4046 104.783 79.0874 104.168C78.7749 103.552 78.6162 102.847 78.6115 102.051V95.0909H82.532V101.227C82.5367 101.767 82.674 102.191 82.9439 102.499C83.2185 102.806 83.602 102.96 84.0945 102.96C84.4212 102.96 84.7029 102.892 84.9396 102.754C85.1811 102.612 85.3658 102.413 85.4936 102.158C85.6262 101.897 85.6901 101.587 85.6854 101.227ZM91.5998 106V95.0909H95.4066V97.1648H95.5202C95.7191 96.3977 96.034 95.8366 96.4648 95.4815C96.9004 95.1264 97.4094 94.9489 97.9918 94.9489C98.1623 94.9489 98.3304 94.9631 98.4961 94.9915C98.6665 95.0152 98.8299 95.0507 98.9862 95.098V98.4432C98.792 98.3769 98.5529 98.3272 98.2688 98.294C97.9847 98.2609 97.7409 98.2443 97.5373 98.2443C97.1538 98.2443 96.8081 98.3319 96.5004 98.5071C96.1973 98.6776 95.9582 98.919 95.783 99.2315C95.6078 99.5393 95.5202 99.9015 95.5202 100.318V106H91.5998ZM100.272 106V95.0909H104.192V106H100.272ZM102.232 93.9545C101.702 93.9545 101.247 93.7794 100.868 93.429C100.489 93.0786 100.3 92.6572 100.3 92.1648C100.3 91.6723 100.489 91.2509 100.868 90.9006C101.247 90.5502 101.702 90.375 102.232 90.375C102.767 90.375 103.221 90.5502 103.596 90.9006C103.974 91.2509 104.164 91.6723 104.164 92.1648C104.164 92.6572 103.974 93.0786 103.596 93.429C103.221 93.7794 102.767 93.9545 102.232 93.9545ZM112.695 95.0909V97.9318H105.508V95.0909H112.695ZM106.9 92.4773H110.82V102.491C110.82 102.643 110.846 102.771 110.898 102.875C110.951 102.974 111.031 103.05 111.14 103.102C111.249 103.15 111.388 103.173 111.559 103.173C111.677 103.173 111.815 103.159 111.971 103.131C112.132 103.102 112.25 103.079 112.326 103.06L112.894 105.815C112.719 105.867 112.468 105.931 112.141 106.007C111.819 106.083 111.436 106.133 110.991 106.156C110.091 106.204 109.336 106.111 108.725 105.879C108.114 105.643 107.655 105.271 107.347 104.764C107.04 104.258 106.89 103.623 106.9 102.861V92.4773ZM116.681 110.091C116.232 110.091 115.803 110.055 115.396 109.984C114.989 109.918 114.631 109.826 114.324 109.707L115.176 106.923C115.498 107.037 115.791 107.11 116.056 107.143C116.326 107.177 116.556 107.158 116.745 107.087C116.94 107.016 117.079 106.881 117.164 106.682L117.25 106.483L113.414 95.0909H117.505L119.267 102.648H119.38L121.17 95.0909H125.289L121.312 106.909C121.113 107.51 120.824 108.05 120.446 108.528C120.072 109.011 119.579 109.393 118.968 109.672C118.358 109.951 117.595 110.091 116.681 110.091Z" fill="#F2A71B"/>
</svg>
